<svg viewBox="6.621621621621621 11.870000000000001 87.56756756756756 76.67999999999999" version="1.1" xmlns="http://www.w3.org/2000/svg" style="max-height: 500px" width="87.56756756756756" height="76.67999999999999">
 <path fill-rule="evenodd" d="m65.5 56.176-0.003906 0.003907c-0.41016 0.33984-0.61719 0.79687-0.72266 1.1836-0.11328 0.39844-0.15625 0.82422-0.16406 1.2344-0.011719 0.81641 0.10547 1.7148 0.25 2.4648 0.003906 0.03125 0 0.0625-0.011719 0.082031-0.007812 0.007813-0.011718 0.011719-0.011718 0.011719h-0.003907l-0.86719 0.19922c-0.25-0.30078-0.625-0.48047-1.0312-0.48047-0.60547 0-1.0898 0.40234-1.2891 0.90234-0.30469 0.75391-0.69141 1.2109-1.1016 1.4844-0.035157 0.019531-0.066407 0.039062-0.097657 0.058593-0.4375 0.25781-0.94141 0.34766-1.4961 0.30078l-0.039063-0.003906c-1.1562-0.10547-2.4062-0.78125-3.2617-1.4414-0.16797-0.12891-0.37109-0.19922-0.58984-0.19922-0.79688 0-1.2578 0.9375-0.73047 1.5547h-0.003906c-3.8516-2.6914-13.043-7.3789-22.312-6.4961-7.3359 0.69531-12.988-1.9375-15.871-4.0234 12.227-4.8438 17.699-15.113 19.367-21.277 0.007813-0.023437 0.035157-0.078125 0.13281-0.11719 0.10156-0.035157 0.17969-0.015626 0.21484 0.007812 2.1523 1.3477 5.1641 2.5117 8.4414 2.3086 3.3281-0.20703 6.8008-1.8203 9.8086-5.7812 0.015625-0.019532 0.050781-0.046875 0.10938-0.050782 0.058594-0.003906 0.097656 0.019532 0.12109 0.039063 4.75 4.7383 15.945 10.414 31.711 4.5547-2.5938 4.9805-8.9258 14.039-20.547 23.48zm-10.164-20.566c0.29297 0.070313 0.47266 0.37109 0.39844 0.66406-0.25 1-0.90625 1.9922-1.582 2.8008-0.67969 0.82031-1.4219 1.5078-1.9062 1.8945-0.23828 0.1875-0.58203 0.14844-0.77344-0.085938-0.1875-0.23828-0.14844-0.58203 0.085938-0.77344 0.43359-0.34375 1.1211-0.98047 1.75-1.7344 0.63672-0.76953 1.168-1.6094 1.3594-2.3672 0.074219-0.29297 0.37109-0.47266 0.66797-0.39844zm1.582 1.6367c0.30078 0.035156 0.51562 0.3125 0.47656 0.61328-0.46875 3.7734-2.9766 5.1992-4.3008 5.4219-0.30078 0.046875-0.58203-0.15625-0.63281-0.45312-0.050782-0.30078 0.15234-0.58203 0.45312-0.63281 0.875-0.14453 2.9844-1.2109 3.3906-4.4727 0.039062-0.30078 0.3125-0.51562 0.61328-0.47656zm-18.512 2.2852c0.25391-0.16797 0.59375-0.10156 0.76172 0.15234 0.34375 0.51562 0.94531 0.875 1.6289 1.1016 0.67578 0.22656 1.3555 0.30469 1.7617 0.30469 0.30469 0 0.55078 0.24609 0.55078 0.54688 0 0.30469-0.24609 0.55078-0.55078 0.55078-0.51172 0-1.3125-0.089844-2.1133-0.35938-0.79297-0.26562-1.6562-0.73047-2.1914-1.5352-0.16797-0.25-0.10156-0.59375 0.15234-0.76172zm21.055 1.7461c0.20312 0.22656 0.17969 0.57422-0.050782 0.77344l-4.3945 3.8477c-0.23047 0.19922-0.57812 0.17578-0.77734-0.050782-0.19922-0.23047-0.17578-0.57422 0.050781-0.77734l4.3984-3.8477c0.22656-0.19922 0.57422-0.17578 0.77344 0.054688zm-21.688 1.0703c0.21484-0.21484 0.5625-0.21484 0.77734 0 0.55078 0.55078 1.4805 0.93359 2.5 1.1719 1 0.23828 2.0039 0.31641 2.6094 0.31641 0.30078 0 0.54688 0.24609 0.54688 0.55078 0 0.30469-0.24609 0.55078-0.54688 0.55078-0.67969 0-1.7656-0.089844-2.8633-0.34766-1.0781-0.25391-2.2539-0.69531-3.0234-1.4648-0.21484-0.21484-0.21484-0.5625 0-0.77734zm7.4961 4.582c0.11328 0.28125-0.027343 0.60156-0.30859 0.71484-0.50781 0.20312-1.3594 0.4375-2.3203 0.50391-0.96094 0.070312-2.0781-0.023438-3.0742-0.52344-0.27344-0.13281-0.38281-0.46484-0.24609-0.73828 0.13281-0.26953 0.46484-0.37891 0.73438-0.24219 0.76172 0.37891 1.6602 0.46875 2.5078 0.41016 0.84375-0.0625 1.5859-0.26953 1.9922-0.42969 0.28125-0.11328 0.60156 0.023438 0.71484 0.30469z"/>
 <path fill-rule="evenodd" d="m32.445 18.66c0.58594-0.78125 1.4336-0.98438 2.207-0.92969-0.66016 3.5586 0.23047 6.1641 2.082 7.7344 1.8047 1.5312 4.3008 1.8867 6.4688 1.457 2.1523-0.42188 4.2695-1.6758 5.168-3.7188 0.94141-2.1406 0.36719-4.7109-2.0039-7.3242-0.007813-0.011718-0.015626-0.027344-0.023438-0.039062 0.76953-0.65234 1.668-1.2695 2.4414-1.5664 0.39453-0.15234 0.67578-0.1875 0.85156-0.16797 0.13281 0.011719 0.20703 0.050781 0.28906 0.16016 0.039063 0.054687 0.125 0.19531 0.27734 0.48438 0.074219 0.14453 0.15625 0.30469 0.24609 0.48438l0.0625 0.125 0.003906 0.003906c0.0625 0.12891 0.13281 0.26562 0.20703 0.41406 0.41406 0.81641 0.96484 1.8633 1.6836 3.0078 1.4297 2.2852 3.5547 4.9805 6.6992 7.0586 6.375 4.2188 16.539 5.6484 32.688-2.8711 0.78906 6.1289-2.3867 19.777-22.309 33.285-0.71875 0.48828-1.082 1.3438-0.96875 2.1797 0.14062 1.0352 0.21875 2.3477 0.089844 3.4609-0.0625 0.55859-0.17578 1.0156-0.32031 1.3438-0.14844 0.33203-0.29297 0.45312-0.38281 0.5-0.28906 0.14453-0.96484 0.29297-2.0469 0.41797-0.12891 0.015625-0.26172 0.03125-0.39844 0.042969-0.375 0.039063-0.77734 0.074219-1.1914 0.10938 0.18359 0.33984 0.37891 0.69141 0.58203 1.0547 3.5469 6.2227 10.148 14.934 19.152 20.035-4.5312-2.1367-9.8086-5.8633-14.848-9.9375-4.3789-3.543-8.5469-7.332-11.84-10.523-0.45703 0.078125-0.89453 0.17188-1.2812 0.28516-0.19141 0.058594-0.375 0.12109-0.54297 0.19141-0.20312 0.082031-0.375 0.13672-0.51562 0.16016-0.11328 0.019531-0.16016 0.007813-0.16406 0.007813-1.543-0.64063-3.6797-1.6719-4.7148-2.5898-0.23828-0.21094-0.54688-0.40625-0.92969-0.50781-3.5117-0.95312-11.805-2.8242-19.184-3.2578-6.0312-0.35547-15.121-3.7461-20.883-6.2656 0-0.007813 0-0.011719 0.003906-0.019532 0-0.03125 0.011719-0.054687 0.023438-0.070312l0.011719-0.011719c0.003906 0 0.007812-0.007812 0.023437-0.011719 4.1758-1.3125 9.4219-3.6992 13.801-7.3594 4.3828-3.6719 7.9531-8.6797 8.5898-15.207 0.011719-0.10938 0.015625-0.21875 0.007813-0.32812-0.085938-1.6367-0.13672-4.1641-0.003906-6.4805 0.066406-1.1602 0.17578-2.2422 0.33984-3.125 0.17969-0.93359 0.38672-1.4727 0.55078-1.6914zm54.688 14.328c-2.5977 5.082-9.0469 14.379-20.938 24.039-0.67969 0.55859-0.52734 2.4023-0.25781 3.832 0.11719 0.61328-0.25 1.2305-0.85938 1.3711l-0.58203 0.13281-1.1016 0.25c-0.082031-0.16797-0.16016-0.33594-0.23438-0.49609-0.042968-0.085938-0.12891-0.14063-0.22656-0.14063-0.09375 0-0.21094 0.066407-0.26953 0.21094-0.097656 0.23828-0.20312 0.46094-0.31641 0.66406-0.36328 0.63672-0.81641 1.1055-1.3438 1.418-0.69141 0.40625-1.457 0.51172-2.1953 0.44531-0.70703-0.066406-1.4258-0.25391-2.0625-0.59375l-1.4922 0.33984-0.66016 0.15234c-0.3125 0.070313-0.63672 0-0.89844-0.17969-3.7539-2.6289-12.684-7.1523-21.578-6.3047-7.793 0.74219-13.781-2.1172-16.785-4.3477-0.65625-0.48828-0.44141-1.457 0.32031-1.7578 11.875-4.668 17.184-14.629 18.793-20.578 0.22656-0.82422 1.2695-1.207 1.9961-0.75391 4.043 2.5352 11.129 4.25 16.789-3.2031 0.44922-0.59375 1.3555-0.65234 1.8828-0.125 4.4805 4.4688 15.281 10.031 30.68 4.2539 0.90625-0.33984 1.7812 0.51172 1.3398 1.3711z"/>
<text fill="#000000" font-family="Arbeit Regular, Helvetica, Arial-Unicode, Arial, Sans-serif" font-weight="bold" font-size="5.0" y="117.5" x="0.0">Created by ddo</text><text fill="#000000" font-family="Arbeit Regular, Helvetica, Arial-Unicode, Arial, Sans-serif" font-weight="bold" font-size="5.0" y="122.5" x="0.0">from Noun Project</text></svg>