<svg viewBox="6.621621621621621 11.870000000000001 87.56756756756756 76.67999999999999" version="1.1" xmlns="http://www.w3.org/2000/svg" style="max-height: 500px" width="87.56756756756756" height="76.67999999999999">
 <path fill-rule="evenodd" d="m55.336 35.609c0.29297 0.070313 0.47266 0.37109 0.39844 0.66406-0.25 1-0.90625 1.9922-1.582 2.8008-0.67969 0.82031-1.4219 1.5078-1.9062 1.8945-0.23828 0.1875-0.58203 0.14844-0.77344-0.085938-0.1875-0.23828-0.14844-0.58203 0.085938-0.77344 0.43359-0.34375 1.1211-0.98047 1.75-1.7344 0.63672-0.76953 1.168-1.6094 1.3594-2.3672 0.074219-0.29297 0.37109-0.47266 0.66797-0.39844zm1.582 1.6367c0.30078 0.035156 0.51562 0.3125 0.47656 0.61328-0.46875 3.7734-2.9766 5.1992-4.3008 5.4219-0.30078 0.046875-0.58203-0.15625-0.63281-0.45312-0.050782-0.30078 0.15234-0.58203 0.45312-0.63281 0.875-0.14453 2.9844-1.2109 3.3906-4.4727 0.039062-0.30078 0.3125-0.51562 0.61328-0.47656zm-18.512 2.2852c0.25391-0.16797 0.59375-0.10156 0.76172 0.15234 0.34375 0.51562 0.94531 0.875 1.6289 1.1016 0.67578 0.22656 1.3555 0.30469 1.7617 0.30469 0.30469 0 0.55078 0.24609 0.55078 0.54688 0 0.30469-0.24609 0.55078-0.55078 0.55078-0.51172 0-1.3125-0.089844-2.1133-0.35938-0.79297-0.26562-1.6562-0.73047-2.1914-1.5352-0.16797-0.25-0.10156-0.59375 0.15234-0.76172zm21.055 1.7461c0.20312 0.22656 0.17969 0.57422-0.050782 0.77344l-4.3945 3.8477c-0.23047 0.19922-0.57812 0.17578-0.77734-0.050782-0.19922-0.23047-0.17578-0.57422 0.050781-0.77734l4.3984-3.8477c0.22656-0.19922 0.57422-0.17578 0.77344 0.054688zm-21.688 1.0703c0.21484-0.21484 0.5625-0.21484 0.77734 0 0.55078 0.55078 1.4805 0.93359 2.5 1.1719 1 0.23828 2.0039 0.31641 2.6094 0.31641 0.30078 0 0.54688 0.24609 0.54688 0.55078 0 0.30469-0.24609 0.55078-0.54688 0.55078-0.67969 0-1.7656-0.089844-2.8633-0.34766-1.0781-0.25391-2.2539-0.69531-3.0234-1.4648-0.21484-0.21484-0.21484-0.5625 0-0.77734zm7.4961 4.582c0.11328 0.28125-0.027343 0.60156-0.30859 0.71484-0.50781 0.20312-1.3594 0.4375-2.3203 0.50391-0.96094 0.070312-2.0781-0.023438-3.0742-0.52344-0.27344-0.13281-0.38281-0.46484-0.24609-0.73828 0.13281-0.26953 0.46484-0.37891 0.73438-0.24219 0.76172 0.37891 1.6602 0.46875 2.5078 0.41016 0.84375-0.0625 1.5859-0.26953 1.9922-0.42969 0.28125-0.11328 0.60156 0.023438 0.71484 0.30469z"/>
 <path fill-rule="evenodd" d="m55.734 36.273c0.074219-0.29297-0.10547-0.59375-0.39844-0.66406-0.29688-0.074219-0.59375 0.10547-0.66797 0.39844-0.19141 0.75781-0.72266 1.5977-1.3594 2.3672-0.62891 0.75391-1.3164 1.3906-1.75 1.7344-0.23438 0.19141-0.27344 0.53516-0.085938 0.77344 0.19141 0.23438 0.53516 0.27344 0.77344 0.085938 0.48438-0.38672 1.2266-1.0742 1.9062-1.8945 0.67578-0.80859 1.332-1.8008 1.582-2.8008zm1.6602 1.5859c0.039063-0.30078-0.17578-0.57812-0.47656-0.61328-0.30078-0.039063-0.57422 0.17578-0.61328 0.47656-0.40625 3.2617-2.5156 4.3281-3.3906 4.4727-0.30078 0.050782-0.50391 0.33203-0.45312 0.63281 0.050781 0.29688 0.33203 0.5 0.63281 0.45312 1.3242-0.22266 3.832-1.6484 4.3008-5.4219zm-18.227 1.8242c-0.16797-0.25391-0.50781-0.32031-0.76172-0.15234s-0.32031 0.51172-0.15234 0.76172c0.53516 0.80469 1.3984 1.2695 2.1914 1.5352 0.80078 0.26953 1.6016 0.35938 2.1133 0.35938 0.30469 0 0.55078-0.24609 0.55078-0.55078 0-0.30078-0.24609-0.54688-0.55078-0.54688-0.40625 0-1.0859-0.078125-1.7617-0.30469-0.68359-0.22656-1.2852-0.58594-1.6289-1.1016zm20.242 2.3672c0.23047-0.19922 0.25391-0.54688 0.050782-0.77344-0.19922-0.23047-0.54688-0.25391-0.77344-0.054688l-4.3984 3.8477c-0.22656 0.20313-0.25 0.54688-0.050781 0.77734 0.19922 0.22656 0.54688 0.25 0.77734 0.050782zm-20.859 0.29688c-0.21484-0.21484-0.5625-0.21484-0.77734 0-0.21484 0.21484-0.21484 0.5625 0 0.77734 0.76953 0.76953 1.9453 1.2109 3.0234 1.4648 1.0977 0.25781 2.1836 0.34766 2.8633 0.34766 0.30078 0 0.54688-0.24609 0.54688-0.55078 0-0.30469-0.24609-0.55078-0.54688-0.55078-0.60547 0-1.6094-0.078126-2.6094-0.31641-1.0195-0.23828-1.9492-0.62109-2.5-1.1719zm6.4102 5.2969c0.28125-0.11328 0.42187-0.43359 0.30859-0.71484s-0.43359-0.41797-0.71484-0.30469c-0.40625 0.16016-1.1484 0.36719-1.9922 0.42969-0.84766 0.058593-1.7461-0.03125-2.5078-0.41016-0.26953-0.13672-0.60156-0.027343-0.73438 0.24219-0.13672 0.27344-0.027343 0.60547 0.24609 0.73828 0.99609 0.5 2.1133 0.59375 3.0742 0.52344 0.96094-0.066407 1.8125-0.30078 2.3203-0.50391z"/>
 <path fill-rule="evenodd" d="m66.195 57.027c11.891-9.6602 18.34-18.957 20.938-24.039 0.44141-0.85938-0.43359-1.7109-1.3398-1.3711-15.398 5.7773-26.199 0.21484-30.68-4.2539-0.52734-0.52734-1.4336-0.46875-1.8828 0.125-5.6602 7.4531-12.746 5.7383-16.789 3.2031-0.72656-0.45312-1.7695-0.070312-1.9961 0.75391-1.6094 5.9492-6.918 15.91-18.793 20.578-0.76172 0.30078-0.97656 1.2695-0.32031 1.7578 3.0039 2.2305 8.9922 5.0898 16.785 4.3477 8.8945-0.84766 17.824 3.6758 21.578 6.3047 0.26172 0.17969 0.58594 0.25 0.89844 0.17969l0.66016-0.15234 1.4922-0.33984c0.63672 0.33984 1.3555 0.52734 2.0625 0.59375 0.73828 0.066406 1.5039-0.039063 2.1953-0.44531 0.52734-0.3125 0.98047-0.78125 1.3438-1.418 0.11328-0.20312 0.21875-0.42578 0.31641-0.66406 0.058594-0.14453 0.17578-0.21094 0.26953-0.21094 0.097656 0 0.18359 0.054688 0.22656 0.14063 0.074219 0.16016 0.15234 0.32812 0.23438 0.49609l1.1016-0.25 0.58203-0.13281c0.60938-0.14062 0.97656-0.75781 0.85938-1.3711-0.26953-1.4297-0.42188-3.2734 0.25781-3.832zm-0.69922-0.84766 0.003906-0.003907c11.621-9.4414 17.953-18.5 20.547-23.48-15.766 5.8594-26.961 0.18359-31.711-4.5547-0.023438-0.019531-0.0625-0.042969-0.12109-0.039063-0.058594 0.003907-0.09375 0.03125-0.10938 0.050782-3.0078 3.9609-6.4805 5.5742-9.8086 5.7812-3.2773 0.20312-6.2891-0.96094-8.4414-2.3086-0.035157-0.023438-0.11328-0.042969-0.21484-0.007812-0.097656 0.039062-0.125 0.09375-0.13281 0.11719-1.668 6.1641-7.1406 16.434-19.367 21.277 2.8828 2.0859 8.5352 4.7188 15.871 4.0234 9.2695-0.88281 18.461 3.8047 22.312 6.4961h0.003906c-0.52734-0.61719-0.066406-1.5547 0.73047-1.5547 0.21875 0 0.42188 0.070313 0.58984 0.19922 0.85547 0.66016 2.1055 1.3359 3.2617 1.4414l0.039063 0.003906c0.55469 0.046875 1.0586-0.042969 1.4961-0.30078 0.03125-0.019531 0.0625-0.039062 0.097657-0.058593 0.41016-0.27344 0.79688-0.73047 1.1016-1.4844 0.19922-0.5 0.68359-0.90234 1.2891-0.90234 0.40625 0 0.78125 0.17969 1.0312 0.48047l0.86719-0.19922h0.003907s0.003906-0.003906 0.011718-0.011719c0.011719-0.019531 0.015625-0.050781 0.011719-0.082031-0.14453-0.75-0.26172-1.6484-0.25-2.4648 0.007813-0.41016 0.050781-0.83594 0.16406-1.2344 0.10547-0.38672 0.3125-0.84375 0.72266-1.1836z"/>
 <path fill-rule="evenodd" d="m50.805 13.605c-1.1094-1.4766-3.5859 0.042969-5.2188 1.4336-0.46875 0.40234-0.44531 1.1211-0.03125 1.5781 8.7695 9.6797-12.336 14.512-9.8086 1.2461 0.10547-0.54297-0.17188-1.1211-0.71875-1.1992-1.0508-0.14062-2.4883 0.039063-3.4609 1.3398-1.3086 1.7422-1.2852 8.6797-1.1055 12.012 0.003906 0.054687 0.003906 0.10938-0.003907 0.16016-1.207 12.32-13.461 19.059-21.625 21.629-1 0.3125-1.1445 1.7422-0.18359 2.1602 5.7539 2.5195 15.012 5.9922 21.27 6.3633 7.2734 0.42578 15.484 2.2773 18.961 3.2188 0.18359 0.050781 0.34375 0.14844 0.48828 0.27344 1.1914 1.0547 3.4844 2.1445 5.0234 2.7812 0.47266 0.19531 1.043 0.027344 1.5156-0.16797 0.28906-0.11719 0.64453-0.21875 1.0508-0.30469 3.2461 3.125 7.2773 6.7695 11.504 10.191 5.4297 4.3906 11.219 8.4453 16.102 10.543 0.33594 0.14453 0.67188 0.21484 0.97656 0.16797 0.32422-0.046875 0.64063-0.25 0.74609-0.62891 0.089844-0.33594-0.035156-0.66016-0.20312-0.89062-0.17188-0.24609-0.43359-0.46094-0.76172-0.63672-8.9727-4.793-15.633-13.375-19.273-19.629 1.0312-0.125 1.8711-0.28516 2.3477-0.52344 1.5703-0.78516 1.5039-4.2617 1.2109-6.4336-0.058594-0.43359 0.13281-0.875 0.49609-1.1211 20.332-13.785 23.699-27.934 22.758-34.516-0.10156-0.70312-0.89844-1.0117-1.5273-0.67969-28.625 15.129-37.195-1.8672-39.832-7.0977-0.30469-0.60156-0.52734-1.0469-0.69531-1.2695zm-16.152 4.125c-0.77344-0.054688-1.6211 0.14844-2.207 0.92969-0.16406 0.21875-0.37109 0.75781-0.55078 1.6914-0.16406 0.88281-0.27344 1.9648-0.33984 3.125-0.13281 2.3164-0.082032 4.8438 0.003906 6.4805 0.007812 0.10938 0.003906 0.21875-0.007813 0.32812-0.63672 6.5273-4.207 11.535-8.5898 15.207-4.3789 3.6602-9.625 6.0469-13.801 7.3594-0.015625 0.003907-0.019531 0.011719-0.023437 0.011719l-0.011719 0.011719c-0.011719 0.015625-0.023438 0.039062-0.023438 0.070312-0.003906 0.007813-0.003906 0.011719-0.003906 0.019532 5.7617 2.5195 14.852 5.9102 20.883 6.2656 7.3789 0.43359 15.672 2.3047 19.184 3.2578 0.38281 0.10156 0.69141 0.29688 0.92969 0.50781 1.0352 0.91797 3.1719 1.9492 4.7148 2.5898 0.003906 0 0.050781 0.011718 0.16406-0.007813 0.14062-0.023437 0.3125-0.078125 0.51562-0.16016 0.16797-0.070313 0.35156-0.13281 0.54297-0.19141 0.38672-0.11328 0.82422-0.20703 1.2812-0.28516 3.293 3.1914 7.4609 6.9805 11.84 10.523 5.0391 4.0742 10.316 7.8008 14.848 9.9375-9.0039-5.1016-15.605-13.812-19.152-20.035-0.20312-0.36328-0.39844-0.71484-0.58203-1.0547 0.41406-0.035156 0.81641-0.070312 1.1914-0.10938 0.13672-0.011719 0.26953-0.027344 0.39844-0.042969 1.082-0.125 1.7578-0.27344 2.0469-0.41797 0.089844-0.046876 0.23438-0.16797 0.38281-0.5 0.14453-0.32813 0.25781-0.78516 0.32031-1.3438 0.12891-1.1133 0.050781-2.4258-0.089844-3.4609-0.11328-0.83594 0.25-1.6914 0.96875-2.1797 19.922-13.508 23.098-27.156 22.309-33.285-16.148 8.5195-26.312 7.0898-32.688 2.8711-3.1445-2.0781-5.2695-4.7734-6.6992-7.0586-0.71875-1.1445-1.2695-2.1914-1.6836-3.0078-0.074218-0.14844-0.14453-0.28516-0.20703-0.41406l-0.003906-0.003906c-0.11719-0.23047-0.21484-0.42969-0.30859-0.60938-0.15234-0.28906-0.23828-0.42969-0.27734-0.48438-0.082031-0.10938-0.15625-0.14844-0.28906-0.16016-0.17578-0.019531-0.45703 0.015625-0.85156 0.16797-0.77344 0.29687-1.6719 0.91406-2.4414 1.5664 0.007812 0.011718 0.015625 0.027344 0.023438 0.039062 2.3711 2.6133 2.9453 5.1836 2.0039 7.3242-0.89844 2.043-3.0156 3.2969-5.168 3.7188-2.168 0.42969-4.6641 0.074219-6.4688-1.457-1.8516-1.5703-2.7422-4.1758-2.082-7.7344z"/>
<text fill="#000000" font-family="Arbeit Regular, Helvetica, Arial-Unicode, Arial, Sans-serif" font-weight="bold" font-size="5.0" y="117.5" x="0.0">Created by ddo</text><text fill="#000000" font-family="Arbeit Regular, Helvetica, Arial-Unicode, Arial, Sans-serif" font-weight="bold" font-size="5.0" y="122.5" x="0.0">from Noun Project</text></svg>